<svg width="333" height="97" viewBox="0 0 333 97" fill="none" xmlns="http://www.w3.org/2000/svg">
<path fill-rule="evenodd" clip-rule="evenodd" d="M0 96.5807V0H41.6882C48.8563 0 55.1283 1.30472 60.5044 3.91416C65.8805 6.5236 70.0619 10.2806 73.0486 15.1851C76.0353 20.0895 77.5287 25.9686 77.5287 32.8223C77.5287 39.7389 75.9881 45.5709 72.9071 50.3182C70.0606 54.7493 66.1322 58.167 61.1218 60.5712L80.7354 96.5807H52.2517L35.2947 64.7015H26.2202V96.5807H0ZM35.4632 44.329H26.2202V20.9384H35.4632C38.5443 20.9384 41.1694 21.3628 43.3387 22.2117C45.5394 23.0291 47.2214 24.3181 48.3847 26.0787C49.5794 27.8078 50.1767 30.0557 50.1767 32.8223C50.1767 35.5575 49.5794 37.774 48.3847 39.4717C47.2214 41.1694 45.5394 42.4113 43.3387 43.1972C41.1694 43.9518 38.5443 44.329 35.4632 44.329ZM117.898 96.5807H80.7373V0H117.521C127.456 0 136.039 1.9335 143.27 5.8005C150.532 9.63606 156.128 15.1693 160.058 22.4003C164.019 29.5999 166 38.2299 166 48.2904C166 58.3508 164.035 66.9966 160.105 74.2276C156.175 81.4271 150.611 86.9604 143.411 90.8274C136.211 94.6629 127.707 96.5807 117.898 96.5807ZM106.957 74.3219H116.955C121.734 74.3219 125.805 73.5516 129.169 72.0111C132.565 70.4706 135.143 67.814 136.903 64.0413C138.695 60.2686 139.591 55.0183 139.591 48.2904C139.591 41.5624 138.679 36.3121 136.856 32.5394C135.064 28.7667 132.423 26.1101 128.933 24.5696C125.475 23.0291 121.231 22.2588 116.201 22.2588H106.957V74.3219ZM270 83.7402V97H333V78.9401H300.33V78.4648L331.854 38.543V24H271.194V42.0599H304.008V42.5352L270 83.7402ZM180.381 0L202.19 71.0449H203L218.286 24.4868H242L218.286 97H186.905L154 0H180.381ZM253.4 29.3806C261.237 29.3806 267.591 23.0274 267.591 15.1903C267.591 7.35321 261.237 1 253.4 1C245.563 1 239.21 7.35321 239.21 15.1903C239.21 23.0274 245.563 29.3806 253.4 29.3806ZM246.358 18.7642C249.827 20.5249 249.827 25.8068 249.827 25.8068C249.827 25.8068 249.827 20.5249 253.296 18.7642C249.827 17.0036 249.827 11.7216 249.827 11.7216C249.827 11.7216 249.827 17.0036 246.358 18.7642ZM258.657 18.6591C258.657 18.6591 258.657 16.0576 256.87 15.1904C258.657 14.3232 258.657 11.7216 258.657 11.7216C258.657 11.7216 258.657 14.3232 260.444 15.1904C258.657 16.0576 258.657 18.6591 258.657 18.6591ZM253.296 8.14756C255.082 9.04102 255.082 11.7214 255.082 11.7214C255.082 11.7214 255.082 9.04102 256.869 8.14756C255.082 7.25409 255.082 4.57371 255.082 4.57371C255.082 4.57371 255.082 7.25409 253.296 8.14756ZM267.381 96.653H239V70.329V46.9299C251.163 46.9299 262.776 43.41 267.381 29.3805V44.005V96.653Z" fill="url(#paint0_linear_661_139)"/>
<defs>
<linearGradient id="paint0_linear_661_139" x1="0" y1="48.5" x2="333" y2="48.5" gradientUnits="userSpaceOnUse">
<stop stop-color="#8861F0"/>
<stop offset="1" stop-color="#6630D3"/>
</linearGradient>
</defs>
</svg>
