<svg width="340" height="102" viewBox="0 0 340 102" fill="none" xmlns="http://www.w3.org/2000/svg">
<path d="M262 66C262 63.2386 264.239 61 267 61H281C283.761 61 286 63.2386 286 66V95C286 97.7614 283.761 100 281 100H267C264.239 100 262 97.7614 262 95V66Z" fill="#8860F0"/>
<path d="M289 34C289 31.2386 291.239 29 294 29H308C310.761 29 313 31.2386 313 34V95C313 97.7614 310.761 100 308 100H294C291.239 100 289 97.7614 289 95V34Z" fill="#784AE2"/>
<path d="M316 8C316 5.23858 318.239 3 321 3H335C337.761 3 340 5.23858 340 8V95C340 97.7614 337.761 100 335 100H321C318.239 100 316 97.7614 316 95V8Z" fill="#6630D3"/>
<path d="M194.136 99.9998V86.1816L224.681 49.6362V49.2725H195.227V30.1816H254.318V45.4544L226.499 80.5453V80.9089H255.408V99.9998H194.136Z" fill="white"/>
<path d="M167.054 100V30.1818H192.145V100H167.054ZM179.599 22.9091C176.205 22.9091 173.296 21.7879 170.872 19.5455C168.448 17.303 167.236 14.6061 167.236 11.4545C167.236 8.30303 168.448 5.60606 170.872 3.36363C173.296 1.12121 176.205 0 179.599 0C183.023 0 185.933 1.12121 188.326 3.36363C190.751 5.60606 191.963 8.30303 191.963 11.4545C191.963 14.6061 190.751 17.303 188.326 19.5455C185.933 21.7879 183.023 22.9091 179.599 22.9091Z" fill="white"/>
<path d="M171.437 30.1816L147.982 99.9998H118.892L95.437 30.1816H121.801L133.073 76.3635H133.801L145.073 30.1816H171.437Z" fill="white"/>
<path d="M61.3776 101.364C55.7413 101.364 50.711 99.9243 46.2867 97.0455C41.8928 94.1365 38.4382 90.0001 35.9231 84.6365C33.4382 79.2425 32.1958 72.7728 32.1958 65.2274C32.1958 57.6819 33.4534 51.2274 35.9685 45.8637C38.514 40.5001 41.9988 36.394 46.4231 33.5455C50.8473 30.6971 55.8625 29.2728 61.4685 29.2728C65.8019 29.2728 69.2867 30.0001 71.9231 31.4546C74.5897 32.8789 76.6503 34.5455 78.1049 36.4546C79.5897 38.3637 80.7413 40.0455 81.5594 41.5001H82.3776V6.90918H95.9685V100H82.6958V89.1365H81.5594C80.7413 90.6213 79.5594 92.3183 78.014 94.2274C76.4988 96.1365 74.4079 97.8031 71.7413 99.2274C69.0746 100.652 65.62 101.364 61.3776 101.364ZM64.3776 89.7728C68.2867 89.7728 71.5897 88.7425 74.2867 86.6819C77.014 84.591 79.0746 81.6971 80.4685 78.0001C81.8928 74.3031 82.6049 70.0001 82.6049 65.091C82.6049 60.2425 81.9079 56.0001 80.514 52.3637C79.12 48.7274 77.0746 45.894 74.3776 43.8637C71.6807 41.8334 68.3473 40.8183 64.3776 40.8183C60.2867 40.8183 56.8776 41.8789 54.1503 44.0001C51.4231 46.1213 49.3625 49.0152 47.9685 52.6819C46.6049 56.3486 45.9231 60.4849 45.9231 65.091C45.9231 69.7577 46.62 73.9546 48.014 77.6819C49.4079 81.4092 51.4685 84.3637 54.1958 86.5455C56.9534 88.6971 60.3473 89.7728 64.3776 89.7728Z" fill="white"/>
<path d="M0.13623 99.9999V30.1817H13.2726V41.2726H13.9999C15.2726 37.515 17.515 34.5605 20.7271 32.409C23.9696 30.2271 27.6362 29.1362 31.7271 29.1362C32.5756 29.1362 33.5756 29.1665 34.7271 29.2271C35.909 29.2877 36.8332 29.3635 37.4999 29.4544V42.4544C36.9544 42.3029 35.9847 42.1362 34.5908 41.9544C33.1968 41.7423 31.8029 41.6362 30.409 41.6362C27.1968 41.6362 24.3332 42.318 21.818 43.6817C19.3332 45.015 17.3635 46.8787 15.909 49.2726C14.4544 51.6362 13.7271 54.3332 13.7271 57.3635V99.9999H0.13623Z" fill="white"/>
</svg>
