<svg width="333" height="97" viewBox="0 0 333 97" fill="none" xmlns="http://www.w3.org/2000/svg">
<path d="M0 96.5807V0H41.6882C48.8563 0 55.1283 1.30472 60.5044 3.91416C65.8805 6.5236 70.0619 10.2806 73.0486 15.1851C76.0353 20.0895 77.5287 25.9686 77.5287 32.8224C77.5287 39.7389 75.9881 45.5709 72.9071 50.3182C69.8575 55.0655 65.5661 58.6495 60.0328 61.0703C54.531 63.4911 48.1017 64.7015 40.745 64.7015H15.8453V44.329H35.4632C38.5443 44.329 41.1694 43.9518 43.3387 43.1972C45.5394 42.4113 47.2214 41.1694 48.3847 39.4717C49.5794 37.774 50.1767 35.5575 50.1767 32.8224C50.1767 30.0557 49.5794 27.8078 48.3847 26.0787C47.2214 24.3181 45.5394 23.0291 43.3387 22.2117C41.1694 21.3628 38.5443 20.9384 35.4632 20.9384H26.2202V96.5807H0ZM56.5903 52.2517L80.7354 96.5807H52.2517L28.6724 52.2517H56.5903Z" fill="url(#paint0_linear_661_135)"/>
<path d="M117.898 96.5807H80.7373V0H117.521C127.456 0 136.039 1.9335 143.27 5.8005C150.532 9.63606 156.128 15.1693 160.058 22.4003C164.019 29.5999 166 38.2299 166 48.2904C166 58.3508 164.035 66.9966 160.105 74.2276C156.175 81.4271 150.611 86.9604 143.411 90.8274C136.211 94.6629 127.707 96.5807 117.898 96.5807ZM106.957 74.3219H116.955C121.734 74.3219 125.805 73.5516 129.169 72.0111C132.565 70.4706 135.143 67.814 136.903 64.0413C138.695 60.2686 139.591 55.0183 139.591 48.2904C139.591 41.5624 138.679 36.3121 136.856 32.5394C135.064 28.7667 132.423 26.1101 128.933 24.5696C125.475 23.0291 121.231 22.2588 116.201 22.2588H106.957V74.3219Z" fill="url(#paint1_linear_661_135)"/>
<path d="M270 97V83.7402L304.008 42.5352V42.0599H271.194V24H331.854V38.543L300.33 78.4648V78.9401H333V97H270Z" fill="url(#paint2_linear_661_135)"/>
<path d="M180.381 0L202.19 71.0449H203L218.286 24.4868H242L218.286 97H186.905L154 0H180.381Z" fill="url(#paint3_linear_661_135)"/>
<path fill-rule="evenodd" clip-rule="evenodd" d="M267.591 15.1903C267.591 23.0274 261.237 29.3806 253.4 29.3806C245.563 29.3806 239.21 23.0274 239.21 15.1903C239.21 7.35321 245.563 1 253.4 1C261.237 1 267.591 7.35321 267.591 15.1903ZM249.827 25.8068C249.827 25.8068 249.827 20.5249 246.358 18.7642C249.827 17.0036 249.827 11.7216 249.827 11.7216C249.827 11.7216 249.827 17.0036 253.296 18.7642C249.827 20.5249 249.827 25.8068 249.827 25.8068ZM256.87 15.1904C258.657 16.0576 258.657 18.6591 258.657 18.6591C258.657 18.6591 258.657 16.0576 260.444 15.1904C258.657 14.3232 258.657 11.7216 258.657 11.7216C258.657 11.7216 258.657 14.3232 256.87 15.1904ZM255.082 11.7214C255.082 11.7214 255.082 9.04102 253.296 8.14756C255.082 7.25409 255.082 4.57371 255.082 4.57371C255.082 4.57371 255.082 7.25409 256.869 8.14756C255.082 9.04102 255.082 11.7214 255.082 11.7214ZM239 96.653H267.381V44.005V29.3805C262.776 43.41 251.163 46.9299 239 46.9299V70.329V96.653Z" fill="url(#paint4_linear_661_135)"/>
<defs>
<linearGradient id="paint0_linear_661_135" x1="82.999" y1="-0.254883" x2="82.999" y2="96.7451" gradientUnits="userSpaceOnUse">
<stop stop-color="#303030"/>
<stop offset="1" stop-color="#6B6B6B"/>
</linearGradient>
<linearGradient id="paint1_linear_661_135" x1="123.369" y1="0" x2="123.369" y2="96.5807" gradientUnits="userSpaceOnUse">
<stop stop-color="#FF725E"/>
<stop offset="0.49" stop-color="#DC5C65"/>
<stop offset="1" stop-color="#B7456C"/>
</linearGradient>
<linearGradient id="paint2_linear_661_135" x1="301.5" y1="24" x2="301.5" y2="97" gradientUnits="userSpaceOnUse">
<stop stop-color="#FF725E"/>
<stop offset="0.49" stop-color="#DC5C65"/>
<stop offset="1" stop-color="#B7456C"/>
</linearGradient>
<linearGradient id="paint3_linear_661_135" x1="198" y1="0" x2="198" y2="97" gradientUnits="userSpaceOnUse">
<stop stop-color="#FF725E"/>
<stop offset="0.49" stop-color="#DC5C65"/>
<stop offset="1" stop-color="#B7456C"/>
</linearGradient>
<linearGradient id="paint4_linear_661_135" x1="253.295" y1="1" x2="253.295" y2="96.653" gradientUnits="userSpaceOnUse">
<stop stop-color="#FF725E"/>
<stop offset="0.49" stop-color="#DC5C65"/>
<stop offset="1" stop-color="#B7456C"/>
</linearGradient>
</defs>
</svg>
